<svg xmlns="http://www.w3.org/2000/svg" viewBox="0 0 281.27 167.77"><defs><style>.cls-1{fill:#fff;}</style></defs><g id="Слой_2" data-name="Слой 2"><g id="Слой_1-2" data-name="Слой 1"><path class="cls-1" d="M273.46,21.34H224V39.56a23.43,23.43,0,1,1-46.85,0V0L156,12.69a20.77,20.77,0,0,0-10.12,17.83V45.91l-26,15a10.39,10.39,0,0,0-3.8,14.22l26,45.09a10.41,10.41,0,0,0,14.21,3.81L190,104.64h44.44a20.84,20.84,0,0,0,20.82-20.83h5.21A10.4,10.4,0,0,0,270.86,73.4V52.58h2.6a7.79,7.79,0,0,0,7.81-7.81V29.15A7.79,7.79,0,0,0,273.46,21.34Z"/><path class="cls-1" d="M134,124.36l-26-45.09A10.42,10.42,0,0,0,93.7,75.46L60.06,94.89H26.81a21,21,0,0,0-11,3.15l-10.9,6.8A10.34,10.34,0,0,0,0,113.66v41.09a13,13,0,1,0,26,0V126.12H85.89a18.23,18.23,0,0,1,18.22,18.22v9.27l26-15A10.42,10.42,0,0,0,134,124.36Z"/></g></g></svg>