<?xml version="1.0" encoding="utf-8"?>
<!-- Generator: Adobe Illustrator 25.4.1, SVG Export Plug-In . SVG Version: 6.00 Build 0)  -->
<svg version="1.1" id="a6b678a2-3714-46f6-ad50-598977cf64a4"
	 xmlns="http://www.w3.org/2000/svg" xmlns:xlink="http://www.w3.org/1999/xlink" x="0px" y="0px" viewBox="0 0 35 35"
	 style="enable-background:new 0 0 35 35;fill:#6d6f70" xml:space="preserve">
<path d="M25.5,13.3c-0.7,0-1.2-0.6-1.2-1.2V8.6c0-1.6-0.7-3.1-1.9-4.1c-1.3-1.2-3.1-1.8-4.9-1.8c-3.7,0-6.8,2.6-6.8,5.9v3.5
	c0,0.7-0.6,1.2-1.2,1.2s-1.2-0.6-1.2-1.2V8.6c0-4.6,4.2-8.4,9.3-8.4c2.4,0,4.7,0.8,6.5,2.4c1.8,1.5,2.8,3.7,2.8,6v3.5
	C26.8,12.8,26.2,13.3,25.5,13.3C25.5,13.3,25.5,13.3,25.5,13.3z"/>
<path d="M27.1,10.8H7.9c-2.6,0-4.8,2.1-4.8,4.8V30c0,2.6,2.1,4.8,4.8,4.8h19.3c2.6,0,4.8-2.1,4.8-4.8V15.6
	C31.9,13,29.8,10.8,27.1,10.8z M18.8,24.5c0,0.7-0.6,1.2-1.2,1.2c-0.7,0-1.2-0.6-1.2-1.2v-3.3c0-0.7,0.6-1.2,1.2-1.2
	s1.2,0.6,1.2,1.2V24.5z"/>
</svg>
